<svg xmlns="http://www.w3.org/2000/svg" viewBox="0 0 600 900" role="img" aria-label="Clara Yosemite Kunu Block outfit"><rect width="600" height="900" rx="56" fill="#dff3ee"/><path d="M0 610 190 286l131 226 94-191 185 303v276H0Z" fill="#789087"/><path d="M0 690c180-68 390-48 600 8v202H0Z" fill="#5f8d5a"/><g transform="translate(138 120)"><path d="m97 462-25 167m151-167 38 167" stroke="#d99a82" stroke-width="48" stroke-linecap="round"/><rect x="50" y="255" width="223" height="240" rx="59" fill="#efb9c3"/><path d="M50 374h223v121H50Z" fill="#a6ced6"/><path d="m52 289-42 155m256-155 42 126" stroke="#e8aa91" stroke-width="44" stroke-linecap="round"/><rect x="82" y="54" width="160" height="190" rx="70" fill="#eaae95"/><path d="M78 126C79 24 231 10 253 105c-48-27-108-25-175 21Z" fill="#7c5948"/><path d="M64 108h192" stroke="#5cb6c5" stroke-width="22"/><rect x="83" y="94" width="65" height="41" rx="18" fill="#204d61"/><rect x="171" y="94" width="65" height="41" rx="18" fill="#204d61"/><rect x="26" y="612" width="101" height="52" rx="20" fill="#f7faf9"/><rect x="210" y="612" width="101" height="52" rx="20" fill="#f7faf9"/></g><text x="42" y="67" fill="#0c1b23" font-family="Inter,system-ui" font-size="24" font-weight="850">YOSEMITE · FREEDOM</text></svg>
