<svg xmlns="http://www.w3.org/2000/svg" viewBox="0 0 1500 900" role="img" aria-labelledby="t d"><title id="t">Clara Kunu Block character reference sheet</title><desc id="d">Original stylized reference showing age progression and three journey outfits.</desc><rect width="1500" height="900" rx="54" fill="#edf6f5"/><text x="65" y="85" fill="#0c1b23" font-family="Inter,system-ui" font-size="48" font-weight="850">Clara · Kunu Block</text><text x="67" y="126" fill="#5f7078" font-family="Inter,system-ui" font-size="20">Rounded silhouettes · warm materials · growing proportions · expressive stance</text><g transform="translate(70 190)"><rect width="400" height="620" rx="38" fill="#fff"/><g transform="translate(95 80)"><circle cx="105" cy="90" r="74" fill="#eaae95"/><path d="M30 85C33-18 182-22 190 67c-50-28-103-24-160 18Z" fill="#7c5948"/><rect x="37" y="168" width="137" height="190" rx="44" fill="#efb9c3"/><path d="M37 260h137v98H37Z" fill="#a6ced6"/><path d="m65 350-17 133m98-133 25 133" stroke="#d99a82" stroke-width="35" stroke-linecap="round"/></g><text x="33" y="575" fill="#0e9fa8" font-family="Inter,system-ui" font-size="18" font-weight="800">AGE 6 · CURIOUS</text></g><g transform="translate(550 190)"><rect width="400" height="620" rx="38" fill="#fff"/><g transform="translate(102 56)"><circle cx="98" cy="85" r="66" fill="#eaae95"/><path d="M30 79C36-14 170-22 181 59c-45-24-95-19-151 20Z" fill="#7c5948"/><rect x="39" y="149" width="120" height="226" rx="42" fill="#ff846f"/><path d="M39 246h120v129H39Z" fill="#1d3c57"/><path d="m64 365-15 144m91-144 23 144" stroke="#293957" stroke-width="31" stroke-linecap="round"/></g><text x="33" y="575" fill="#0e9fa8" font-family="Inter,system-ui" font-size="18" font-weight="800">AGE 7 · CONFIDENT</text></g><g transform="translate(1030 190)"><rect width="400" height="620" rx="38" fill="#0c1b23"/><circle cx="200" cy="175" r="82" fill="#9a6845"/><circle cx="135" cy="112" r="33" fill="#73472f"/><circle cx="265" cy="112" r="33" fill="#73472f"/><rect x="119" y="244" width="162" height="200" rx="60" fill="#8a593b"/><ellipse cx="200" cy="192" rx="54" ry="41" fill="#d1a176"/><circle cx="175" cy="160" r="8" fill="#241c18"/><circle cx="225" cy="160" r="8" fill="#241c18"/><text x="33" y="575" fill="#56e1df" font-family="Inter,system-ui" font-size="18" font-weight="800">BUDDY · ALWAYS</text></g></svg>
