<svg xmlns="http://www.w3.org/2000/svg" viewBox="0 0 600 900" role="img" aria-labelledby="t d"><title id="t">Clara age seven Kunu Block reference</title><desc id="d">Original taller stylized block character with confident posture and longer proportions.</desc><defs><linearGradient id="bg" x2="0" y2="1"><stop stop-color="#dff7f6"/><stop offset="1" stop-color="#f8d7ca"/></linearGradient><filter id="s"><feDropShadow dx="0" dy="20" stdDeviation="18" flood-color="#0c1b23" flood-opacity=".2"/></filter></defs><rect width="600" height="900" rx="56" fill="url(#bg)"/><g filter="url(#s)" transform="translate(128 75)"><ellipse cx="172" cy="746" rx="142" ry="30" fill="#315b51" opacity=".2"/><path d="m106 511-23 202" stroke="#d99a82" stroke-width="49" stroke-linecap="round"/><path d="m235 511 39 202" stroke="#d99a82" stroke-width="49" stroke-linecap="round"/><rect x="63" y="278" width="220" height="277" rx="60" fill="#e7b3bd"/><path d="M63 415h220v141H63Z" fill="#9dcbd5"/><path d="m66 315-48 181m261-181 45 155" stroke="#e8aa91" stroke-width="43" stroke-linecap="round"/><rect x="93" y="62" width="162" height="203" rx="72" fill="#eaae95"/><path d="M89 139C87 21 249 15 269 121c-46-30-111-33-180 18Z" fill="#805b49"/><circle cx="139" cy="175" r="8" fill="#2d2927"/><circle cx="207" cy="175" r="8" fill="#2d2927"/><path d="M150 215c20 16 43 16 62 0" fill="none" stroke="#b96367" stroke-width="7" stroke-linecap="round"/><rect x="34" y="696" width="105" height="54" rx="21" fill="#f7faf9" stroke="#d7d8d3" stroke-width="7"/><rect x="224" y="696" width="105" height="54" rx="21" fill="#f7faf9" stroke="#d7d8d3" stroke-width="7"/><path d="M50 723h74m116 0h74" stroke="#18c7c9" stroke-width="7" stroke-linecap="round"/></g><text x="44" y="72" fill="#0e9fa8" font-family="Inter,system-ui" font-size="22" font-weight="800" letter-spacing="4">AGE 7 · CONFIDENT</text></svg>
