<svg xmlns="http://www.w3.org/2000/svg" viewBox="0 0 600 900" role="img" aria-label="Clara Lapland Kunu Block outfit"><defs><linearGradient id="n" x2="0" y2="1"><stop stop-color="#24245a"/><stop offset="1" stop-color="#7567c8"/></linearGradient></defs><rect width="600" height="900" rx="56" fill="url(#n)"/><path d="M0 637c176-58 394-40 600 20v243H0Z" fill="#e8f6f5"/><g transform="translate(130 118)"><path d="m100 470-20 176m150-176 31 176" stroke="#263854" stroke-width="58" stroke-linecap="round"/><rect x="42" y="250" width="245" height="265" rx="62" fill="#ff846f"/><path d="M42 277h245v106H42Z" fill="#1d3c57"/><path d="m45 293-35 166m271-166 45 145" stroke="#ff947d" stroke-width="57" stroke-linecap="round"/><rect x="83" y="63" width="163" height="181" rx="68" fill="#eaae95"/><path d="M78 123C80 28 237 18 255 110c-45-28-105-29-177 13Z" fill="#8d6652"/><path d="M67 89c19-85 194-91 206 4l-31 23c-44-28-95-29-151 0Z" fill="#f5c8de"/><circle cx="171" cy="44" r="38" fill="#e687bd"/><rect x="29" y="620" width="114" height="59" rx="22" fill="#e9e8dd"/><rect x="213" y="620" width="114" height="59" rx="22" fill="#e9e8dd"/></g><circle cx="484" cy="247" r="98" fill="#ffc56d" opacity=".18"/><text x="42" y="67" fill="#f7faf9" font-family="Inter,system-ui" font-size="24" font-weight="850">LAPLAND · MAGIC</text></svg>
