<svg xmlns="http://www.w3.org/2000/svg" viewBox="0 0 600 900" role="img" aria-labelledby="t d"><title id="t">Clara age six Kunu Block reference</title><desc id="d">Original stylized block character with a curious stance, rose shirt, pale denim shorts, and illustrated trainers.</desc><defs><linearGradient id="bg" x2="0" y2="1"><stop stop-color="#ddf7f5"/><stop offset="1" stop-color="#f4dfbd"/></linearGradient><filter id="s"><feDropShadow dx="0" dy="20" stdDeviation="18" flood-color="#0c1b23" flood-opacity=".2"/></filter></defs><rect width="600" height="900" rx="56" fill="url(#bg)"/><circle cx="477" cy="146" r="72" fill="#fff2c7" opacity=".8"/><g filter="url(#s)" transform="translate(124 112)"><ellipse cx="176" cy="693" rx="145" ry="31" fill="#315b51" opacity=".2"/><path d="m108 497-25 170" stroke="#d7987f" stroke-width="54" stroke-linecap="round"/><path d="m243 497 41 170" stroke="#d7987f" stroke-width="54" stroke-linecap="round"/><rect x="55" y="286" width="242" height="250" rx="65" fill="#efbbc5"/><path d="M55 420h242v125H55Z" fill="#a9d4dc"/><path d="M57 430h106v116H57Zm134 0h105v116H191Z" fill="#aad2da" stroke="#83b5bf" stroke-width="6"/><path d="m62 318-63 177m292-177 50 122" stroke="#e8aa91" stroke-width="48" stroke-linecap="round"/><rect x="90" y="75" width="177" height="205" rx="76" fill="#eaae95"/><path d="M86 150c-4-113 169-133 192-22-55-34-123-35-192 22Z" fill="#7b5747"/><path d="M100 102c28-58 139-68 171 3-54-29-112-31-171-3Z" fill="#8c6752"/><circle cx="143" cy="181" r="9" fill="#2d2927"/><circle cx="216" cy="181" r="9" fill="#2d2927"/><path d="M153 221c23 21 47 21 68 0" fill="none" stroke="#b96367" stroke-width="8" stroke-linecap="round"/><rect x="35" y="648" width="112" height="56" rx="22" fill="#f7faf9" stroke="#d7d8d3" stroke-width="7"/><rect x="235" y="648" width="112" height="56" rx="22" fill="#f7faf9" stroke="#d7d8d3" stroke-width="7"/><path d="M51 675h80m120 0h80" stroke="#18c7c9" stroke-width="7" stroke-linecap="round"/></g><text x="44" y="72" fill="#0e9fa8" font-family="Inter,system-ui" font-size="22" font-weight="800" letter-spacing="4">AGE 6 · CURIOUS</text></svg>
