<svg xmlns="http://www.w3.org/2000/svg" viewBox="0 0 600 900" role="img" aria-label="Clara Corfu Kunu Block outfit"><defs><linearGradient id="s" x2="0" y2="1"><stop stop-color="#7ad2f3"/><stop offset=".5" stop-color="#d9f5f3"/><stop offset=".51" stop-color="#29c5c3"/><stop offset="1" stop-color="#087f98"/></linearGradient></defs><rect width="600" height="900" rx="56" fill="url(#s)"/><g transform="translate(130 117)"><path d="m106 477-26 171m151-171 35 171" stroke="#d99a82" stroke-width="48" stroke-linecap="round"/><path d="M73 245h193l39 310H35Z" fill="#57c885"/><path d="M73 351h193l39 204H35Z" fill="#64d493"/><path d="m73 280-63 150m254-150 63 135" stroke="#e8aa91" stroke-width="43" stroke-linecap="round"/><rect x="89" y="65" width="161" height="176" rx="70" fill="#eaae95"/><path d="M84 126C87 30 237 18 259 110c-48-25-106-25-175 16Z" fill="#7d5947"/><path d="M59 75h217" stroke="#f2dda8" stroke-width="27" stroke-linecap="round"/><path d="M91 46c27-59 132-58 158 1" fill="#f6e5b8"/><rect x="20" y="628" width="111" height="55" rx="20" fill="#f5edeb" stroke="#eb9ab2" stroke-width="7"/><rect x="217" y="628" width="111" height="55" rx="20" fill="#f5edeb" stroke="#eb9ab2" stroke-width="7"/></g><path d="M0 755c185-45 377-26 600 22" fill="none" stroke="#b6f5ed" stroke-width="14" opacity=".7"/><text x="42" y="67" fill="#0c1b23" font-family="Inter,system-ui" font-size="24" font-weight="850">CORFU · SUMMER</text></svg>
