<svg xmlns="http://www.w3.org/2000/svg" viewBox="0 0 1600 900" role="img" aria-labelledby="t d"><title id="t">Kunu launch artwork</title><desc id="d">Original stylized Clara and Buddy looking toward Yosemite, Lapland, and Corfu memory portals.</desc><defs><linearGradient id="bg" x2="1" y2="1"><stop stop-color="#e0faf8"/><stop offset=".55" stop-color="#f7faf9"/><stop offset="1" stop-color="#f7dac7"/></linearGradient><filter id="s"><feDropShadow dx="0" dy="22" stdDeviation="24" flood-color="#0c1b23" flood-opacity=".18"/></filter></defs><rect width="1600" height="900" rx="60" fill="url(#bg)"/><g filter="url(#s)"><circle cx="385" cy="363" r="230" fill="#a9dce0" stroke="#56e1df" stroke-width="14"/><path d="m190 498 151-257 115 186 102-167 72 238Z" fill="#7f8b87"/><path d="M190 500c145-53 281-34 421 3v91H190Z" fill="#578252"/><path d="M494 282c-3 86-13 141-58 231" fill="none" stroke="#e9ffff" stroke-width="29"/></g><g filter="url(#s)"><circle cx="800" cy="287" r="198" fill="#30346e" stroke="#78dfcf" stroke-width="14"/><path d="m651 412 85-274 85 274Zm161 0 93-306 93 306Z" fill="#204752"/><path d="M605 391c137-43 277-23 389 18v76H605Z" fill="#eaf7f5"/></g><g filter="url(#s)"><circle cx="1208" cy="361" r="225" fill="#60d5e5" stroke="#56e1df" stroke-width="14"/><path d="M990 402h436v184H990Z" fill="#17aebb"/><path d="M1006 399h176V278h135v121Z" fill="#888777"/><path d="m1268 410 111 25-44 52h-118Z" fill="#f3eee1"/></g><g filter="url(#s)" transform="translate(610 452)"><circle cx="175" cy="85" r="72" fill="#eaae95"/><path d="M101 83C107-16 247-24 260 66c-46-26-96-19-159 17Z" fill="#7c5948"/><rect x="106" y="154" width="140" height="187" rx="48" fill="#efb9c3"/><path d="M106 250h140v91H106Z" fill="#a6ced6"/><path d="m126 329-18 139m116-139 26 139" stroke="#d99a82" stroke-width="38" stroke-linecap="round"/><path d="m110 179-62 90m191-90 66 72" stroke="#e8aa91" stroke-width="35" stroke-linecap="round"/></g><g filter="url(#s)" transform="translate(914 610)"><circle cx="78" cy="62" r="58" fill="#9a6845"/><circle cx="31" cy="17" r="24" fill="#73472f"/><circle cx="125" cy="17" r="24" fill="#73472f"/><rect x="27" y="111" width="102" height="107" rx="39" fill="#89583b"/><ellipse cx="78" cy="74" rx="34" ry="26" fill="#d1a176"/></g><path d="M800 770c-16-114 4-236 0-347" fill="none" stroke="#18c7c9" stroke-width="9" stroke-dasharray="15 18" opacity=".75"/></svg>
