<svg xmlns="http://www.w3.org/2000/svg" viewBox="0 0 1200 760" role="img" aria-labelledby="t d">
  <title id="t">Kunu Block Corfu</title><desc id="d">An original stylized Corfu coast with Clara, a boat, and fortress.</desc>
  <defs><linearGradient id="sky" x2="0" y2="1"><stop stop-color="#73cdf4"/><stop offset="1" stop-color="#d9f5f5"/></linearGradient><linearGradient id="sea" x2="0" y2="1"><stop stop-color="#28c9c5"/><stop offset="1" stop-color="#086f91"/></linearGradient><filter id="shadow"><feDropShadow dx="0" dy="15" stdDeviation="14" flood-color="#064d68" flood-opacity=".3"/></filter></defs>
  <rect width="1200" height="420" fill="url(#sky)"/><circle cx="963" cy="118" r="74" fill="#fff2a9"/><rect y="395" width="1200" height="365" fill="url(#sea)"/><path d="M0 480c180-45 345 38 531-2 189-41 376-60 669 4" fill="none" stroke="#8feee3" stroke-width="15" opacity=".68"/><path d="M0 582c198-42 339 37 528-1 218-44 428-27 672 13" fill="none" stroke="#e0fffa" stroke-width="10" opacity=".55"/>
  <g fill="#8e8a78"><path d="M35 344h450v78H35Z"/><path d="M63 233h120v111H63Zm151-67h107v178H214Zm136 94h95v84h-95Z"/><path d="m63 233 60-58 60 58Zm151-67 53-60 54 60Zm136 94 47-47 48 47Z" fill="#6d6b60"/></g><g fill="#425d45"><circle cx="65" cy="350" r="38"/><circle cx="130" cy="361" r="45"/><circle cx="428" cy="356" r="48"/></g>
  <g filter="url(#shadow)" transform="translate(743 386)"><path d="m0 196 318 0-63 87H67Z" fill="#f5f1e5"/><path d="m64 196 75-150 13 150Z" fill="#fff7df"/><path d="m148 196 84-114 8 114Z" fill="#ed9f68"/><rect x="101" y="172" width="84" height="24" fill="#31556b"/><path d="M60 287h208" stroke="#174f6b" stroke-width="14" stroke-linecap="round"/></g>
  <g filter="url(#shadow)" transform="translate(406 350)"><ellipse cx="120" cy="324" rx="110" ry="27" fill="#075d75" opacity=".3"/><g stroke="#e8a485" stroke-width="27" stroke-linecap="round"><path d="m88 226-16 94"/><path d="m151 226 23 94"/></g><path d="M53 115h128l-13 138H65Z" fill="#55c581"/><path d="M65 151h105l22 88H45Z" fill="#58ce8a"/><g stroke="#e8a485" stroke-width="25" stroke-linecap="round"><path d="m59 134-41 70"/><path d="m175 135 42 55"/></g><rect x="77" y="50" width="85" height="81" rx="34" fill="#edb196"/><path d="M75 82c4-49 75-54 94-11-23-12-56-14-94 11Z" fill="#7f5c48"/><path d="M58 50c12-33 110-38 127 1l-26 11c-24-13-51-13-78 0Z" fill="#f7e4ad"/><path d="M49 48h145" stroke="#f1db9b" stroke-width="16" stroke-linecap="round"/><circle cx="105" cy="91" r="4" fill="#242626"/><circle cx="136" cy="91" r="4" fill="#242626"/></g>
  <g fill="#2d684d"><path d="M108 760c15-123-11-197-78-253 91 36 126 117 123 253Z"/><path d="M168 760c-11-124 24-208 103-258-57 81-66 159-57 258Z"/><path d="M1032 760c8-123-24-212-93-272 83 46 124 132 138 272Z"/></g>
</svg>
