<svg xmlns="http://www.w3.org/2000/svg" viewBox="0 0 900 1200" role="img" aria-label="Stylized underwater Corfu memory"><defs><linearGradient id="w" x2="0" y2="1"><stop stop-color="#65e5df"/><stop offset=".45" stop-color="#0baeb6"/><stop offset="1" stop-color="#086683"/></linearGradient></defs><rect width="900" height="1200" rx="48" fill="url(#w)"/><path d="M0 0h900v168c-178 62-301-44-459 14C264 247 134 113 0 184Z" fill="#c6ffef" opacity=".38"/><g fill="#d8dacd" opacity=".85"><ellipse cx="113" cy="1089" rx="73" ry="42"/><ellipse cx="243" cy="1120" rx="91" ry="47"/><ellipse cx="405" cy="1090" rx="67" ry="39"/><ellipse cx="575" cy="1125" rx="105" ry="51"/><ellipse cx="766" cy="1077" rx="92" ry="47"/></g><g opacity=".26" stroke="#fff" fill="none"><circle cx="109" cy="310" r="27"/><circle cx="169" cy="245" r="14"/><circle cx="759" cy="403" r="22"/><circle cx="803" cy="331" r="12"/></g><circle cx="452" cy="432" r="73" fill="#ecb095"/><path d="M378 424c12-89 136-91 153-4-41-24-91-27-153 4Z" fill="#795644"/><rect x="381" y="410" width="145" height="51" rx="25" fill="#ed85a3" stroke="#f5cfdb" stroke-width="12"/><path d="M448 432h15" stroke="#f5cfdb" stroke-width="8"/><path d="M353 522h200l-26 263H379Z" fill="#f5dad4"/><path d="M379 541h148l24 173H355Z" fill="#f0b9bd"/><path d="m399 772-183 193m290-193 193 183" stroke="#edb095" stroke-width="45" stroke-linecap="round"/><path d="M371 576 197 672m344-96 170 96" stroke="#edb095" stroke-width="39" stroke-linecap="round"/><circle cx="291" cy="791" r="12" fill="#fff" opacity=".5"/><circle cx="617" cy="741" r="17" fill="#fff" opacity=".45"/></svg>
