<svg xmlns="http://www.w3.org/2000/svg" viewBox="0 0 900 1200" role="img" aria-label="Stylized lantern-lit Lapland memory"><defs><linearGradient id="n" x2="0" y2="1"><stop stop-color="#10143d"/><stop offset=".6" stop-color="#443a8f"/><stop offset="1" stop-color="#a26ac5"/></linearGradient><radialGradient id="g"><stop stop-color="#fff3b2"/><stop offset=".4" stop-color="#ffbc60" stop-opacity=".72"/><stop offset="1" stop-color="#ff9f42" stop-opacity="0"/></radialGradient></defs><rect width="900" height="1200" rx="48" fill="url(#n)"/><path d="M-90 208c258-170 387 120 606-42 165-122 257 20 475-75" fill="none" stroke="#62e6d3" stroke-width="51" opacity=".25"/><path d="M0 763c235-79 404-22 550 39 120 50 235 43 350 4v394H0Z" fill="#eaf7f5"/><g fill="#173d49"><path d="m37 679 152-510 152 510Zm612 0 133-455 133 455Z"/></g><circle cx="548" cy="677" r="260" fill="url(#g)"/><rect x="504" y="620" width="88" height="132" rx="15" fill="#ffe281" stroke="#332941" stroke-width="17"/><path d="M518 619c0-70 61-70 61 0" fill="none" stroke="#332941" stroke-width="13"/><circle cx="357" cy="548" r="67" fill="#edb29b"/><path d="M287 540c5-83 129-92 148-8-37-20-88-23-148 8Z" fill="#946f5a"/><path d="M274 632h171l-13 251H286Z" fill="#ff836d"/><path d="M286 661h146v104H286Z" fill="#203c58"/><path d="m308 870-32 180m123-180 31 180" stroke="#293655" stroke-width="42" stroke-linecap="round"/><path d="M287 684 181 796m248-112 111 35" stroke="#ff957d" stroke-width="36" stroke-linecap="round"/></svg>
