<svg xmlns="http://www.w3.org/2000/svg" viewBox="0 0 1200 760" role="img" aria-labelledby="t d">
  <title id="t">Kunu Block Lapland</title><desc id="d">An original stylized snowy Lapland forest with Clara, a reindeer, and lantern light.</desc>
  <defs><linearGradient id="night" x2="0" y2="1"><stop stop-color="#11183e"/><stop offset=".62" stop-color="#31377a"/><stop offset="1" stop-color="#7d6bd1"/></linearGradient><radialGradient id="glow"><stop stop-color="#fff4b3"/><stop offset=".35" stop-color="#ffc96f" stop-opacity=".72"/><stop offset="1" stop-color="#ff9e55" stop-opacity="0"/></radialGradient><filter id="shadow"><feDropShadow dx="0" dy="16" stdDeviation="14" flood-color="#07102d" flood-opacity=".45"/></filter></defs>
  <rect width="1200" height="760" fill="url(#night)"/><path d="M-80 180c220-205 346 122 536-18 154-113 250 34 411-55 135-75 246-40 413 36" fill="none" stroke="#62edcf" stroke-width="46" opacity=".26"/><path d="M-90 225c247-166 362 84 555-36 160-99 245 35 403-29 157-64 273-45 415 17" fill="none" stroke="#70a7ff" stroke-width="23" opacity=".23"/>
  <circle cx="754" cy="420" r="275" fill="url(#glow)"/>
  <path d="M0 470c178-46 342-34 507 17 176 55 355 34 693-20v293H0Z" fill="#dff2f0"/><path d="M0 567c219-38 400-11 562 48 168 62 360 45 638-6v151H0Z" fill="#f7ffff"/>
  <g filter="url(#shadow)"><g transform="translate(74 180)"><path d="m92 0 91 295H0Z" fill="#193f4b"/><path d="m92 34 67 226H23Z" fill="#d8eeee" opacity=".72"/></g><g transform="translate(933 152)"><path d="m92 0 91 326H0Z" fill="#173d48"/><path d="m92 39 68 249H24Z" fill="#e3f5f4" opacity=".75"/></g><g transform="translate(245 251) scale(.72)"><path d="m92 0 91 295H0Z" fill="#204b55"/><path d="m92 44 61 204H31Z" fill="#e1f2f1" opacity=".67"/></g></g>
  <g filter="url(#shadow)" transform="translate(430 355)"><ellipse cx="100" cy="300" rx="100" ry="25" fill="#27335f" opacity=".28"/><g stroke="#2e395c" stroke-width="29" stroke-linecap="round"><path d="m72 214-21 85"/><path d="m137 214 21 85"/></g><rect x="48" y="104" width="120" height="136" rx="35" fill="#ff846f"/><path d="M48 120h120v59H48Z" fill="#1b3950"/><g stroke="#ff9a83" stroke-width="26" stroke-linecap="round"><path d="m55 139-35 68"/><path d="m160 139 58 35"/></g><rect x="68" y="49" width="84" height="81" rx="33" fill="#edb19a"/><path d="M68 82c0-47 78-55 91-9-24-13-52-15-91 9Z" fill="#9a745e"/><path d="M63 62c12-43 95-50 105 3l-16 7c-25-14-54-14-82 0Z" fill="#f7c9de"/><circle cx="114" cy="35" r="20" fill="#e789c0"/></g>
  <g filter="url(#shadow)" transform="translate(692 473)"><ellipse cx="87" cy="172" rx="94" ry="20" fill="#28365b" opacity=".24"/><rect x="23" y="60" width="136" height="79" rx="40" fill="#868079"/><path d="m44 124-20 51m111-50 19 48" stroke="#514d4a" stroke-width="18" stroke-linecap="round"/><path d="M51 68c-29-55 2-84 31-38-2-41 30-52 37-5" fill="none" stroke="#746c66" stroke-width="10" stroke-linecap="round"/><ellipse cx="48" cy="55" rx="40" ry="33" fill="#77716c"/><circle cx="35" cy="50" r="4" fill="#171818"/></g>
  <g transform="translate(636 458)"><circle cx="0" cy="0" r="110" fill="url(#glow)"/><rect x="-28" y="-41" width="56" height="80" rx="10" fill="#ffe38a" stroke="#382c39" stroke-width="10"/><path d="M-22-41c0-43 44-43 44 0" fill="none" stroke="#382c39" stroke-width="8"/></g>
</svg>
