<svg xmlns="http://www.w3.org/2000/svg" viewBox="0 0 1200 760" role="img" aria-labelledby="t d">
  <title id="t">Kunu Block Yosemite</title><desc id="d">An original stylized Yosemite valley with Clara and Buddy.</desc>
  <defs><linearGradient id="sky" x2="0" y2="1"><stop stop-color="#b7ebef"/><stop offset=".58" stop-color="#f6d9a7"/><stop offset="1" stop-color="#f3a75e"/></linearGradient><linearGradient id="rock" x2="1" y2="1"><stop stop-color="#d9d6c9"/><stop offset="1" stop-color="#7b8582"/></linearGradient><linearGradient id="grass" x2="0" y2="1"><stop stop-color="#79aa6c"/><stop offset="1" stop-color="#365f47"/></linearGradient><filter id="soft"><feDropShadow dx="0" dy="16" stdDeviation="15" flood-color="#173b3a" flood-opacity=".25"/></filter></defs>
  <rect width="1200" height="760" fill="url(#sky)"/><circle cx="956" cy="123" r="70" fill="#fff5d2" opacity=".82"/>
  <path d="M0 160 170 72l168 128 70 268H0Z" fill="#6d7776"/><path d="M0 203 170 114l108 93 63 252H0Z" fill="url(#rock)"/><path d="M1200 126 990 50 848 213l-80 266h432Z" fill="#6e7775"/><path d="M1200 176 1011 95 894 229l-64 245h370Z" fill="url(#rock)"/>
  <path d="M824 211c-18 53-18 122-28 177-7 38-32 66-38 111" fill="none" stroke="#f6ffff" stroke-width="30" stroke-linecap="round" opacity=".92"/><path d="M824 212c-7 51-4 111-15 171-7 41-30 73-35 113" fill="none" stroke="#9be7e6" stroke-width="10" stroke-linecap="round"/>
  <path d="M0 437c170-55 288-42 409 9 139 59 284 42 398-11 140-65 260-48 393 2v323H0Z" fill="url(#grass)"/>
  <path d="M504 760c65-148 141-166 275-220 106-43 157-67 210-110-78 112-156 154-244 201-88 46-125 82-145 129Z" fill="#61cfd0"/><path d="M535 760c62-119 131-139 249-190 69-30 125-65 181-112-66 89-126 125-199 161-86 42-125 77-147 141Z" fill="#b8f1ee" opacity=".75"/>
  <g fill="#285442"><path d="m62 458 49-132 49 132Z"/><path d="m132 472 60-171 60 171Z"/><path d="m262 488 53-147 53 147Z"/><path d="m930 490 48-139 48 139Z"/><path d="m1014 465 62-176 62 176Z"/></g>
  <g filter="url(#soft)" transform="translate(393 388)"><ellipse cx="112" cy="303" rx="105" ry="26" fill="#163e36" opacity=".28"/><g stroke="#7c552f" stroke-width="26" stroke-linecap="round"><path d="m83 217-17 76"/><path d="m145 217 22 76"/></g><rect x="65" y="113" width="98" height="123" rx="31" fill="#a8d6dd"/><path d="M65 135c28 15 70 13 98-2v50H65Z" fill="#f3b9c2"/><g stroke="#efb599" stroke-width="24" stroke-linecap="round"><path d="M72 137 33 198"/><path d="m155 137 37 45"/></g><rect x="74" y="52" width="83" height="83" rx="34" fill="#efb599"/><path d="M72 87c2-47 78-57 92-6-22-17-54-19-92 6Z" fill="#8a654b"/><circle cx="101" cy="95" r="4" fill="#2d2b2a"/><circle cx="132" cy="95" r="4" fill="#2d2b2a"/><path d="M106 112c8 7 16 7 23 0" fill="none" stroke="#b65e62" stroke-width="4" stroke-linecap="round"/></g>
  <g filter="url(#soft)" transform="translate(585 564)"><ellipse cx="54" cy="99" rx="55" ry="16" fill="#183b34" opacity=".25"/><rect x="15" y="36" width="76" height="61" rx="25" fill="#8d5f3e"/><circle cx="53" cy="34" r="34" fill="#9c6b45"/><circle cx="25" cy="14" r="14" fill="#7e5034"/><circle cx="81" cy="14" r="14" fill="#7e5034"/><ellipse cx="54" cy="43" rx="18" ry="14" fill="#d3a77b"/><circle cx="43" cy="31" r="3" fill="#251d18"/><circle cx="65" cy="31" r="3" fill="#251d18"/><path d="M50 40h8l-4 5Z" fill="#251d18"/></g>
  <path d="M37 704c184-58 334-38 493 16" fill="none" stroke="#efd09c" stroke-width="18" stroke-linecap="round" opacity=".8"/>
</svg>
