<svg xmlns="http://www.w3.org/2000/svg" viewBox="0 0 900 1200" role="img" aria-label="Stylized Yosemite waterfall memory"><defs><linearGradient id="s" x2="0" y2="1"><stop stop-color="#83d7e0"/><stop offset=".55" stop-color="#f1d9ab"/><stop offset="1" stop-color="#eea765"/></linearGradient></defs><rect width="900" height="1200" rx="48" fill="url(#s)"/><path d="M0 215 238 82l170 250 71 470H0Z" fill="#89918d"/><path d="m900 138-246-65-170 278-46 439h462Z" fill="#737e7c"/><path d="M668 255c-8 101-22 193-52 294-13 43-51 95-58 149" fill="none" stroke="#ebffff" stroke-width="43" stroke-linecap="round"/><path d="M0 698c232-65 422-35 581 35 132 58 222 45 319 9v458H0Z" fill="#4f805b"/><path d="M211 1200c59-162 174-238 377-309 103-36 177-88 247-151-74 124-176 205-316 265-126 54-180 113-207 195Z" fill="#67d2d1"/><circle cx="370" cy="680" r="66" fill="#edb299"/><path d="M304 672c8-86 130-85 145-9-34-22-83-27-145 9Z" fill="#805d49"/><path d="M289 752h170l-19 219H307Z" fill="#efbcc5"/><path d="M307 862h133l21 191H287Z" fill="#a7d3dc"/><path d="m327 1041-25 129m113-129 31 129" stroke="#865e45" stroke-width="34" stroke-linecap="round"/><path d="M265 789 178 907m306-118 78 91" stroke="#edb299" stroke-width="32" stroke-linecap="round"/></svg>
