<svg xmlns="http://www.w3.org/2000/svg" viewBox="0 0 1600 900" role="img" aria-labelledby="t d"><title id="t">Yosemite celebration artwork</title><desc id="d">Original Kunu Block Clara and Buddy celebrating under turquoise explorer rays.</desc><defs><radialGradient id="b"><stop stop-color="#1a6972"/><stop offset="1" stop-color="#07161d"/></radialGradient></defs><rect width="1600" height="900" fill="url(#b)"/><g opacity=".13" fill="#56e1df" transform="translate(800 450)"><path d="M0 0 72-700H-72Z"/><path d="M0 0 700-72V72Z"/><path d="M0 0-72 700H72Z"/><path d="M0 0-700 72v-144Z"/></g><g transform="translate(557 252)"><circle cx="180" cy="110" r="86" fill="#eaae95"/><path d="M92 108C98-11 262-17 277 87c-52-28-111-22-185 21Z" fill="#7c5948"/><rect x="101" y="192" width="160" height="220" rx="55" fill="#efb9c3"/><path d="M101 300h160v112H101Z" fill="#a6ced6"/><path d="m112 225-98-136m236 136 109-139" stroke="#e8aa91" stroke-width="42" stroke-linecap="round"/><path d="m129 401-18 154m121-154 28 154" stroke="#d99a82" stroke-width="41" stroke-linecap="round"/></g><g transform="translate(965 493)"><circle cx="93" cy="68" r="66" fill="#9a6845"/><circle cx="38" cy="18" r="27" fill="#73472f"/><circle cx="148" cy="18" r="27" fill="#73472f"/><rect x="30" y="123" width="126" height="135" rx="49" fill="#89583b"/><ellipse cx="93" cy="83" rx="42" ry="32" fill="#d1a176"/><path d="m37 151-72-80m181 80 82-89" stroke="#89583b" stroke-width="34" stroke-linecap="round"/></g><g fill="#56e1df"><circle cx="295" cy="221" r="11"/><circle cx="1284" cy="260" r="15"/><circle cx="377" cy="707" r="9"/><circle cx="1269" cy="702" r="10"/></g></svg>
