<svg xmlns="http://www.w3.org/2000/svg" viewBox="0 0 512 512" role="img" aria-label="Kunu Block pine cone collectible"><defs><radialGradient id="g"><stop stop-color="#e9faf8"/><stop offset="1" stop-color="#b7e4df"/></radialGradient><filter id="s"><feDropShadow dx="0" dy="18" stdDeviation="15" flood-color="#0c1b23" flood-opacity=".2"/></filter></defs><rect width="512" height="512" rx="96" fill="url(#g)"/><g filter="url(#s)" transform="translate(101 51)"><ellipse cx="155" cy="220" rx="122" ry="174" fill="#7d5638"/><g fill="#a57349" stroke="#64442e" stroke-width="7"><path d="m155 44 51 67-51 38-51-38Z"/><path d="m100 103 55 47-50 53-60-48Z"/><path d="m210 103-55 47 50 53 60-48Z"/><path d="m94 190 61-39 61 39-61 62Z"/><path d="m58 240 97 13-50 72-80-30Z"/><path d="m252 240-97 13 50 72 80-30Z"/><path d="m104 321 51-68 51 68-51 79Z"/></g></g></svg>
